HIERARCHY
ROOT Hips
{
  OFFSET 1.0008 97.1496 -278.048
  CHANNELS 6 Xposition Yposition Zposition Zrotation Xrotation Yrotation
  JOINT LeftUpLeg
  {
    OFFSET 8.91 -6.27 -2.145
    CHANNELS 3 Zrotation Xrotation Yrotation
    JOINT LeftUpLegRoll
    {
      OFFSET 0 -22.7323 0
      CHANNELS 3 Zrotation Xrotation Yrotation
      JOINT LeftLeg
      {
        OFFSET 0 -22.1464 0
        CHANNELS 3 Zrotation Xrotation Yrotation
        JOINT LeftLegRoll
        {
          OFFSET 0 -22.0919 0
          CHANNELS 3 Zrotation Xrotation Yrotation
          JOINT LeftFoot
          {
            OFFSET 0 -18.609 0
            CHANNELS 3 Zrotation Xrotation Yrotation
            JOINT LeftToeBase
            {
              OFFSET 0 -6.26232 12.9547
              CHANNELS 3 Zrotation Xrotation Yrotation
              End Site
              {
                OFFSET 0 0 5.96686
              }
            }
          }
        }
      }
    }
  }
  JOINT RightUpLeg
  {
    OFFSET -8.91 -6.27 -2.145
    CHANNELS 3 Zrotation Xrotation Yrotation
    JOINT RightUpLegRoll
    {
      OFFSET 0 -22.7323 0
      CHANNELS 3 Zrotation Xrotation Yrotation
      JOINT RightLeg
      {
        OFFSET 0 -22.1464 0
        CHANNELS 3 Zrotation Xrotation Yrotation
        JOINT RightLegRoll
        {
          OFFSET 0 -22.0919 0
          CHANNELS 3 Zrotation Xrotation Yrotation
          JOINT RightFoot
          {
            OFFSET 0 -18.609 0
            CHANNELS 3 Zrotation Xrotation Yrotation
            JOINT RightToeBase
            {
              OFFSET 0 -6.26232 12.9547
              CHANNELS 3 Zrotation Xrotation Yrotation
              End Site
              {
                OFFSET 0 0.000942417 5.96686
              }
            }
          }
        }
      }
    }
  }
  JOINT Spine
  {
    OFFSET 0 7.43174 -2.06162
    CHANNELS 3 Zrotation Xrotation Yrotation
    JOINT Spine1
    {
      OFFSET -1.68772e-005 12.1899 -1.41951
      CHANNELS 3 Zrotation Xrotation Yrotation
      JOINT Spine2
      {
        OFFSET 0 11.8846 -1.0903
        CHANNELS 3 Zrotation Xrotation Yrotation
        JOINT Spine3
        {
          OFFSET 1.84329e-005 10.5137 1.04001
          CHANNELS 3 Zrotation Xrotation Yrotation
          JOINT Neck
          {
            OFFSET 0 11.5156 1.94702
            CHANNELS 3 Zrotation Xrotation Yrotation
            JOINT Head
            {
              OFFSET -1.26215e-005 11.0733 1.65432
              CHANNELS 3 Zrotation Xrotation Yrotation
              End Site
              {
                OFFSET 1 0 0
              }
            }
          }
          JOINT LeftShoulder
          {
            OFFSET 7 4.56855 2.0674
            CHANNELS 3 Zrotation Xrotation Yrotation
            JOINT LeftArm
            {
              OFFSET 10.7073 0 0
              CHANNELS 3 Zrotation Xrotation Yrotation
              JOINT LeftArmRoll
              {
                OFFSET 15.2612 0 0
                CHANNELS 3 Zrotation Xrotation Yrotation
                JOINT LeftForeArm
                {
                  OFFSET 12.0443 0 0
                  CHANNELS 3 Zrotation Xrotation Yrotation
                  JOINT LeftForeArmRoll
                  {
                    OFFSET 16.3277 0 0
                    CHANNELS 3 Zrotation Xrotation Yrotation
                    JOINT LeftHand
                    {
                      OFFSET 10.3694 0 0
                      CHANNELS 3 Zrotation Xrotation Yrotation
                      JOINT LeftHandThumb1
                      {
                        OFFSET 4.34876 -0.798502 4.28243
                        CHANNELS 3 Zrotation Xrotation Yrotation
                        JOINT LeftHandThumb2
                        {
                          OFFSET 2.51259 -0.536099 0.707454
                          CHANNELS 3 Zrotation Xrotation Yrotation
                          JOINT LeftHandThumb3
                          {
                            OFFSET 2.54314 0 0
                            CHANNELS 3 Zrotation Xrotation Yrotation
                            JOINT LeftHandThumb4
                            {
                              OFFSET 2.66675 0 0
                              CHANNELS 3 Zrotation Xrotation Yrotation
                              End Site
                              {
                                OFFSET 1 0 0
                              }
                            }
                          }
                        }
                      }
                      JOINT LeftHandIndex1
                      {
                        OFFSET 8.82198 0.199729 3.47167
                        CHANNELS 3 Zrotation Xrotation Yrotation
                        JOINT LeftHandIndex2
                        {
                          OFFSET 4.22532 0 -0.000262656
                          CHANNELS 3 Zrotation Xrotation Yrotation
                          JOINT LeftHandIndex3
                          {
                            OFFSET 2.65394 0 -0.00016516
                            CHANNELS 3 Zrotation Xrotation Yrotation
                            JOINT LeftHandIndex4
                            {
                              OFFSET 1.95822 0 -0.00012217
                              CHANNELS 3 Zrotation Xrotation Yrotation
                              End Site
                              {
                                OFFSET 1 0 0
                              }
                            }
                          }
                        }
                      }
                      JOINT LeftHandMiddle1
                      {
                        OFFSET 8.80988 0.50089 1.30468
                        CHANNELS 3 Zrotation Xrotation Yrotation
                        JOINT LeftHandMiddle2
                        {
                          OFFSET 4.86325 0 0
                          CHANNELS 3 Zrotation Xrotation Yrotation
                          JOINT LeftHandMiddle3
                          {
                            OFFSET 2.76524 0 0
                            CHANNELS 3 Zrotation Xrotation Yrotation
                            JOINT LeftHandMiddle4
                            {
                              OFFSET 2.00563 0 0
                              CHANNELS 3 Zrotation Xrotation Yrotation
                              End Site
                              {
                                OFFSET 1 0 0
                              }
                            }
                          }
                        }
                      }
                      JOINT LeftHandRing1
                      {
                        OFFSET 8.89376 0.37992 -0.793159
                        CHANNELS 3 Zrotation Xrotation Yrotation
                        JOINT LeftHandRing2
                        {
                          OFFSET 4.53776 0 -0.000282138
                          CHANNELS 3 Zrotation Xrotation Yrotation
                          JOINT LeftHandRing3
                          {
                            OFFSET 2.30453 0 -0.000143448
                            CHANNELS 3 Zrotation Xrotation Yrotation
                            JOINT LeftHandRing4
                            {
                              OFFSET 1.92335 0 -0.00012044
                              CHANNELS 3 Zrotation Xrotation Yrotation
                              End Site
                              {
                                OFFSET 1 0 0
                              }
                            }
                          }
                        }
                      }
                      JOINT LeftHandPinky1
                      {
                        OFFSET 8.88227 -0.313027 -2.49036
                        CHANNELS 3 Zrotation Xrotation Yrotation
                        JOINT LeftHandPinky2
                        {
                          OFFSET 3.0441 0 0
                          CHANNELS 3 Zrotation Xrotation Yrotation
                          JOINT LeftHandPinky3
                          {
                            OFFSET 1.9745 0 0
                            CHANNELS 3 Zrotation Xrotation Yrotation
                            JOINT LeftHandPinky4
                            {
                              OFFSET 1.66661 0 0
                              CHANNELS 3 Zrotation Xrotation Yrotation
                              End Site
                              {
                                OFFSET 1 0 0
                              }
                            }
                          }
                        }
                      }
                    }
                  }
                }
              }
            }
          }
          JOINT RightShoulder
          {
            OFFSET -7 4.56855 2.0673
            CHANNELS 3 Zrotation Xrotation Yrotation
            JOINT RightArm
            {
              OFFSET -10.7073 0 0
              CHANNELS 3 Zrotation Xrotation Yrotation
              JOINT RightArmRoll
              {
                OFFSET -15.2612 0 0
                CHANNELS 3 Zrotation Xrotation Yrotation
                JOINT RightForeArm
                {
                  OFFSET -12.0444 0 0
                  CHANNELS 3 Zrotation Xrotation Yrotation
                  JOINT RightForeArmRoll
                  {
                    OFFSET -16.3276 0 0
                    CHANNELS 3 Zrotation Xrotation Yrotation
                    JOINT RightHand
                    {
                      OFFSET -10.3694 0 0
                      CHANNELS 3 Zrotation Xrotation Yrotation
                      JOINT RightHandThumb1
                      {
                        OFFSET -4.34838 -0.798501 4.28282
                        CHANNELS 3 Zrotation Xrotation Yrotation
                        JOINT RightHandThumb2
                        {
                          OFFSET -2.51253 -0.536099 0.707679
                          CHANNELS 3 Zrotation Xrotation Yrotation
                          JOINT RightHandThumb3
                          {
                            OFFSET -2.54159 0 0.0888232
                            CHANNELS 3 Zrotation Xrotation Yrotation
                            JOINT RightHandThumb4
                            {
                              OFFSET -2.66512 0 0.0931403
                              CHANNELS 3 Zrotation Xrotation Yrotation
                              End Site
                              {
                                OFFSET 1 0 0
                              }
                            }
                          }
                        }
                      }
                      JOINT RightHandIndex1
                      {
                        OFFSET -8.82167 0.199732 3.47246
                        CHANNELS 3 Zrotation Xrotation Yrotation
                        JOINT RightHandIndex2
                        {
                          OFFSET -4.22532 0 0.0001146
                          CHANNELS 3 Zrotation Xrotation Yrotation
                          JOINT RightHandIndex3
                          {
                            OFFSET -2.65394 0 7.19601e-005
                            CHANNELS 3 Zrotation Xrotation Yrotation
                            JOINT RightHandIndex4
                            {
                              OFFSET -1.95822 0 5.30956e-005
                              CHANNELS 3 Zrotation Xrotation Yrotation
                              End Site
                              {
                                OFFSET 1 0 0
                              }
                            }
                          }
                        }
                      }
                      JOINT RightHandMiddle1
                      {
                        OFFSET -8.80976 0.500893 1.30547
                        CHANNELS 3 Zrotation Xrotation Yrotation
                        JOINT RightHandMiddle2
                        {
                          OFFSET -4.86325 0 0.000131881
                          CHANNELS 3 Zrotation Xrotation Yrotation
                          JOINT RightHandMiddle3
                          {
                            OFFSET -2.76524 0 7.49854e-005
                            CHANNELS 3 Zrotation Xrotation Yrotation
                            JOINT RightHandMiddle4
                            {
                              OFFSET -2.00563 0 5.43888e-005
                              CHANNELS 3 Zrotation Xrotation Yrotation
                              End Site
                              {
                                OFFSET 1 0 0
                              }
                            }
                          }
                        }
                      }
                      JOINT RightHandRing1
                      {
                        OFFSET -8.89383 0.379922 -0.792364
                        CHANNELS 3 Zrotation Xrotation Yrotation
                        JOINT RightHandRing2
                        {
                          OFFSET -4.53776 0 0.000123049
                          CHANNELS 3 Zrotation Xrotation Yrotation
                          JOINT RightHandRing3
                          {
                            OFFSET -2.30453 0 6.24859e-005
                            CHANNELS 3 Zrotation Xrotation Yrotation
                            JOINT RightHandRing4
                            {
                              OFFSET -1.92335 0 5.21537e-005
                              CHANNELS 3 Zrotation Xrotation Yrotation
                              End Site
                              {
                                OFFSET 1 0 0
                              }
                            }
                          }
                        }
                      }
                      JOINT RightHandPinky1
                      {
                        OFFSET -8.8825 -0.313025 -2.48956
                        CHANNELS 3 Zrotation Xrotation Yrotation
                        JOINT RightHandPinky2
                        {
                          OFFSET -3.0478 0 8.26466e-005
                          CHANNELS 3 Zrotation Xrotation Yrotation
                          JOINT RightHandPinky3
                          {
                            OFFSET -1.9769 0 5.36145e-005
                            CHANNELS 3 Zrotation Xrotation Yrotation
                            JOINT RightHandPinky4
                            {
                              OFFSET -1.66864 0 4.5245e-005
                              CHANNELS 3 Zrotation Xrotation Yrotation
                              End Site
                              {
                                OFFSET 1 0 0
                              }
                            }
                          }
                        }
                      }
                    }
                  }
                }
              }
            }
          }
        }
      }
    }
  }
}
MOTION
Frames:	4
Frame Time:	0.0416667
-10.4606 94.6918 -53.4613 -2.2555 1.43441 -0.263551 -0.821 6.96782 1.05525 2.39794e-018 -1.33298e-016 2.17734 -0.005005 34.656 -4.00672 1.95275e-017 3.67973e-016 -6.02114 -11.583 -22.7757 -2.30451 7.28676 -2.74751 0.349217 7.38534 -28.7747 6.62126 2.52038e-018 -1.33549e-016 2.1816 0.00470057 25.2117 -2.15764 5.46464e-018 1.97739e-016 -3.23095 -1.30433 5.59666 0.0576121 0.522556 -2.85345 0.0260144 0.614342 0.0334564 -0.447961 0.936592 0.198051 -1.44617 0.935784 0.195038 -1.44707 0.935049 0.191992 -1.44791 0.802638 6.55811 -1.56061 1.62387 3.41738 -2.51429 -14.4258 0 -8.90181 -53.3664 4.62115 -16.4019 -0 22.2536 0 0.118062 0.198991 -30.6809 -0 0.334702 0 4.39443 0.0645802 1.72399 -2.26736 0.588319 -0.234905 0.26544 0.00926932 1.99998 0.281293 0 0 -0 0 0 -2.77344 -0.0968129 0.0930276 -2.77379 0 0 -2.77413 0 0 -0 0 0 -4.86085 -0.169541 2.05159 -4.86395 0 0 -4.86407 0 0 -0 0 0 -6.94378 -0.241888 1.99307 -6.94798 0 0 -6.94794 0 0 -0 0 0 -8.32865 -0.289817 1.97203 -8.33433 0 0 -8.33406 0 0 -0 0 0 22.3446 4.3622e-016 7.40674 52.9607 2.82436 -5.19042 3.41648e-015 25.9625 -7.87553e-016 -0.113562 0.340027 18.4684 -7.43915e-006 0.523236 -2.70889e-006 6.7407 0.0769356 1.30579 2.27523 0.608073 0.153181 -0.154522 0.00539603 -1.99999 -0.261109 0 0 0 0 -0 2.77314 -0.0968024 -0.0929933 2.77379 0 0 2.77413 0 0 0 0 -0 4.85529 -0.169347 -0.0550799 4.85559 0 0 4.85575 0 0 0 0 -0 6.93836 -0.2417 0.00329334 6.93831 0 0 6.938 0 0 0 0 -0 8.32097 -0.289552 0.0282836 8.31945 0 0 8.3185 0 0 0 0 -0 
-10.695 96.039 -48.0793 -2.67576 0.330051 -1.71396 1.5091 3.7915 3.3391 7.87719e-018 -2.34689e-016 3.83575 0.0198706 45.7381 -4.43322 2.3586e-017 4.05601e-016 -6.63922 -15.0949 -10.4794 -1.48235 8.27597 -3.06075 0.435002 7.87354 -23.5306 6.26179 1.13868e-018 -8.84071e-017 1.44402 0.00154812 24.6182 -1.3643 2.29736e-018 1.25097e-016 -2.04359 -2.05511 2.13571 0.0343468 0.522558 -2.85206 0.0260018 0.863245 0.134291 -0.299985 1.34342 0.370375 -1.18981 1.34354 0.365896 -1.191 1.34376 0.361392 -1.19207 -0.00627461 6.69298 -1.35274 1.10141 3.97497 -2.43944 -15.4314 0 -8.42938 -57.2244 5.31413 -16.7058 -0 20.6608 0 0.0573992 0.237589 -13.5819 -0 0.35972 0 -3.03576 0.109347 -2.29279 -2.23866 0.601282 -0.136372 0.254677 0.00889347 1.99998 0.255408 0 0 -0 0 0 -2.51873 -0.0879275 0.084672 -2.51898 0 0 -2.51927 0 0 -0 0 0 -4.41437 -0.154 2.04702 -4.41718 0 0 -4.41728 0 0 -0 0 0 -6.30598 -0.219764 1.99427 -6.3098 0 0 -6.30977 0 0 -0 0 0 -7.56357 -0.263357 1.97572 -7.56883 0 0 -7.56863 0 0 -0 0 0 21.5211 5.8386e-016 8.20302 52.4853 2.84379 -4.24924 3.4068e-015 25.8985 -7.83345e-016 -0.112593 0.30927 20.0047 -7.44123e-006 0.479201 -2.70888e-006 6.36913 0.0294187 0.529024 2.24663 0.621398 0.0530415 -0.142209 0.00496604 -1.99999 -0.236945 0 0 0 0 -0 2.51843 -0.087917 -0.0846408 2.51898 0 0 2.51927 0 0 0 0 -0 4.40933 -0.153825 -0.0505107 4.40958 0 0 4.40972 0 0 0 0 -0 6.30106 -0.219593 0.00214322 6.30102 0 0 6.30079 0 0 0 0 -0 7.55679 -0.263123 0.0245982 7.55534 0 0 7.55463 0 0 0 0 -0 
-11.0715 97.782 -43.2923 -2.93897 0.0810756 -2.1233 4.41529 -2.37126 5.30982 9.74524e-018 -2.61091e-016 4.26807 0.00899652 55.8218 -3.55251 1.50925e-017 3.25447e-016 -5.32265 -17.6451 5.52021 0.915209 2.5626 -0.976858 0.0668899 7.69281 -16.6368 5.60348 6.05015e-019 -6.47271e-017 1.05718 -0.00257166 17.7948 -0.944037 1.05542e-018 8.67131e-017 -1.41631 -2.78889 2.38996 0.0544823 0.52258 -2.87435 0.026206 0.885957 0.207904 -0.130161 1.45958 0.506358 -0.918721 1.4605 0.501341 -0.919955 1.46149 0.496305 -0.921047 -0.567419 7.02445 -1.25024 0.597659 4.18309 -2.40977 -16.1108 0 -8.30104 -59.1874 4.84018 -13.5431 -0 19.9332 0 0.0260859 0.285261 -5.22495 -0 0.426339 0 -12.6554 0.387283 -3.74319 -2.21098 0.613762 -0.0414059 0.244202 0.0085277 1.99998 0.230479 0 0 -0 0 0 -2.2732 -0.0793611 0.0765818 -2.27338 0 0 -2.27362 0 0 -0 0 0 -3.98401 -0.139012 2.04253 -3.98654 0 0 -3.98663 0 0 -0 0 0 -5.6912 -0.198414 1.99518 -5.69465 0 0 -5.69463 0 0 -0 0 0 -6.82612 -0.237808 1.97895 -6.83096 0 0 -6.83081 0 0 -0 0 0 21.2942 6.95001e-016 8.92886 51.6014 3.20761 -1.76426 3.43691e-015 26.0972 -7.9654e-016 -0.110174 0.280436 21.4483 -7.4432e-006 0.437627 -2.70886e-006 5.7424 -0.0181387 -0.34804 2.21906 0.634227 -0.0434759 -0.13026 0.00454877 -1.99999 -0.213689 0 0 0 0 -0 2.2729 -0.0793507 -0.0765537 2.27338 0 0 2.27361 0 0 0 0 -0 3.97946 -0.138854 -0.0460313 3.97966 0 0 3.9798 0 0 0 0 -0 5.68675 -0.198259 0.00131263 5.68673 0 0 5.68656 0 0 0 0 -0 6.82018 -0.237603 0.0213797 6.8188 0 0 6.81828 0 0 0 0 -0 
-11.2793 99.1782 -38.7507 -2.64592 0.196365 -3.5978 5.96478 -8.36493 6.64951 1.16508e-017 -2.85678e-016 4.67081 1.47575e-008 61.6371 -2.61346 8.22627e-018 2.40108e-016 -3.92446 -17.3037 7.31346 1.11432 -4.2906e-007 -1.04696e-007 -7.84017e-016 6.97527 -9.52923 5.26498 1.50263e-018 -1.02669e-016 1.677 -2.62775e-008 9.04474 -0.529688 3.36038e-019 4.8556e-017 -0.793032 -3.07904 4.15161 0.107362 0.522603 -2.897 0.0264134 0.783529 0.227878 0.106647 1.31637 0.550791 -0.522104 1.31783 0.546165 -0.52323 1.31932 0.541522 -0.52423 -1.4159 7.76037 -1.09492 0.34846 3.91515 -2.54271 -16.9651 0 -7.94605 -59.3056 4.23997 -7.81198 -0 21.1101 0 0.0374084 0.384725 -5.5537 -0 0.576304 0 -20.3309 1.04302 -5.81213 -2.18439 0.625736 0.0497968 0.234049 0.00817316 1.99998 0.206553 0 0 -0 0 0 -2.0374 -0.0711324 0.0687786 -2.0375 0 0 -2.03769 0 0 -0 0 0 -3.57068 -0.12461 2.03811 -3.57294 0 0 -3.57301 0 0 -0 0 0 -5.10075 -0.177886 1.99573 -5.10385 0 0 -5.10383 0 0 -0 0 0 -6.11784 -0.213233 1.98173 -6.12228 0 0 -6.12218 0 0 -0 0 0 20.9786 7.86894e-016 9.48375 50.7337 3.27606 0.938715 3.39779e-015 25.839 -7.79415e-016 -0.104926 0.236178 23.954 -7.44624e-006 0.373275 -2.70884e-006 4.3249 -0.066614 -1.76396 2.19256 0.646536 -0.136168 -0.11871 0.00414543 -2 -0.191385 0 0 0 0 -0 2.0371 -0.0711219 -0.068752 2.0375 0 0 2.03769 0 0 0 0 -0 3.5666 -0.124468 -0.0416097 3.56677 0 0 3.56688 0 0 0 0 -0 5.09676 -0.177748 0.000825108 5.09675 0 0 5.09663 0 0 0 0 -0 6.11273 -0.213056 0.0185972 6.1114 0 0 6.11102 0 0 0 0 -0 
